<svg xmlns="http://www.w3.org/2000/svg" viewBox="0 0 88.52 12.46">
  <defs>
    <style>
      .cls-1 {
        fill: #fff;
      }

      .cls-2 {
        fill: #eaeaea;
      }
    </style>
  </defs>
  <title>Asset 2</title>
  <g id="Layer_2" data-name="Layer 2">
    <g id="Layer_1-2" data-name="Layer 1">
      <g>
        <path class="cls-1" d="M15.38,6.22a8.71,8.71,0,0,1,3.13-5.06A5.63,5.63,0,0,1,24.25.52a4.17,4.17,0,0,1,2,5.14c-.17-1.15,1.57-1.79,2.52-1.11A3.94,3.94,0,0,1,30,7.69a2.51,2.51,0,0,1,4.65.17,1.39,1.39,0,0,1,2.21,0A2.16,2.16,0,0,1,40.11,8a2.35,2.35,0,0,1,2.83-2,3.87,3.87,0,0,1,2.68,2.72c.25-.93,1.62-.51,2.58-.52a10.1,10.1,0,0,0,2.29-.71c.77-.22,1.82,0,2,.77a2,2,0,0,1,2.31,0,2,2,0,0,1,2-1A5.82,5.82,0,0,1,59,8.05,2,2,0,0,1,60.9,6.79a2.4,2.4,0,0,1,.5-2.63,7.08,7.08,0,0,1,2.4-1.53,7.71,7.71,0,0,1,3.63-1,4.05,4.05,0,0,1,3.66,4.19,2.3,2.3,0,0,1,2.28,2.73,2.22,2.22,0,0,1,2.45.85,21.73,21.73,0,0,1,4.63-.16c.4,0,1,.25.86.65a1.82,1.82,0,0,1,2.14,1.16,10.56,10.56,0,0,0,5.07,1H4.67v.38L0,12.37a34.53,34.53,0,0,1,5.23-.93,3.52,3.52,0,0,1-1.91-3,3.19,3.19,0,0,1,1.9-2.95,2.94,2.94,0,0,1,3.37.87,4.36,4.36,0,0,1,.7,2.81c-.24-.42.31-.9.8-.94a2.31,2.31,0,0,1,1.81.89C13.07,8,13.36,6.55,15.38,6.22Z"/>
        <path class="cls-2" d="M10.71,11.11a1.52,1.52,0,0,1,2.34-.57,1.35,1.35,0,0,1,1.48,0,.93.93,0,0,1,.52-1.23,2.71,2.71,0,0,1,1.47-.06,3.12,3.12,0,0,1,1-2.74,5.15,5.15,0,0,1,4.84-1.47,4.41,4.41,0,0,1,3.3,3.71,1.91,1.91,0,0,1,3.21,1.92.7.7,0,0,1,.35-.76,1.72,1.72,0,0,1,.87-.17A8.17,8.17,0,0,1,34.38,11a1.95,1.95,0,0,1,3.32-.08,1.3,1.3,0,0,1,1.72,0,1.94,1.94,0,0,1,1.6-.73,5.79,5.79,0,0,1,1.78.38c.46-.55,1.32-.15,2,.1a7.43,7.43,0,0,0,2.9.23Z"/>
        <path class="cls-2" d="M61.64,9.57a.45.45,0,0,1,.67-.09,5.61,5.61,0,0,1,.83-2.13A3,3,0,0,1,65,6.08a3.49,3.49,0,0,1,1.47.1A3.91,3.91,0,0,1,68.14,7a2.23,2.23,0,0,1,.79,1.65,1,1,0,0,1,1.41,0A2.88,2.88,0,0,1,71.09,10a1.4,1.4,0,0,1,2,.54c.08.17.2.4.38.36s.19-.16.27-.26c.25-.29.72-.2,1.06,0a.89.89,0,0,0,.37.14,1,1,0,0,0,.35-.07,3.08,3.08,0,0,1,1.28.28,13.05,13.05,0,0,1,1.89.29H59.59a1.28,1.28,0,0,0-.05-.58.42.42,0,0,1,0-.15.29.29,0,0,1,.17-.23.81.81,0,0,1,.71-.05.79.79,0,0,1,.44.55.47.47,0,0,1,.24-.43c.16-.1.34,0,.45-.17S61.5,9.77,61.64,9.57Z"/>
      </g>
    </g>
  </g>
</svg>
