<?xml version="1.0" encoding="utf-8"?>
<!-- Generator: Adobe Illustrator 24.0.2, SVG Export Plug-In . SVG Version: 6.00 Build 0)  -->
<svg version="1.1" id="Layer_1" xmlns="http://www.w3.org/2000/svg" xmlns:xlink="http://www.w3.org/1999/xlink" x="0px" y="0px"
	 viewBox="0 0 1150 492" style="enable-background:new 0 0 1150 492;" xml:space="preserve">
<style type="text/css">
	.st0{fill:url(#SVGID_1_);}
	.st1{fill:#1BBFBF;}
</style>
<title>Asset 9</title>
<g>
	<g id="Layer_2_1_">
		<g id="OBJECTS">
			<g>
				<image style="overflow:visible;opacity:0.3;enable-background:new    ;" width="1150" height="492" xlink:href="1087CB40.png" >
				</image>
				<g>
					
						<linearGradient id="SVGID_1_" gradientUnits="userSpaceOnUse" x1="523.6781" y1="319.4273" x2="568.1081" y2="40.6973" gradientTransform="matrix(1 0 0 -1 0 493.276)">
						<stop  offset="3.000000e-02" style="stop-color:#006579"/>
						<stop  offset="1" style="stop-color:#005668"/>
					</linearGradient>
					<path class="st0" d="M515,38.1l60.6-30.4l11.5,6.8l49.3,61.7l180.6,162c0,0,77.8,29.1,82.8,30.3s238.4,212.4,238.4,212.4H7.1
						l194.5-164.6c0,0,42.9-18.6,47.9-21s80.8-90.9,80.8-90.9S486.8,41.1,492.8,38.8S515,38.1,515,38.1z"/>
					<path class="st1" d="M537.9,311.3l54-67l-42.8-85.6l-148.6,100l117.1-97.4l58-153.5L515,38.1c0,0-16.2-1.6-22.2,0.8
						S330.2,204.3,330.2,204.3s-75.8,88.6-80.8,90.9s-47.9,21-47.9,21L7.1,480.8h479.1l200.4-87.9L537.9,311.3z"/>
				</g>
			</g>
		</g>
	</g>
</g>
</svg>
