<svg xmlns="http://www.w3.org/2000/svg" height="512pt" version="1.1" viewBox="0 -40 512 512" width="512pt">
<g id="surface1">
<path d="M 0 0 L 0 329.664062 L 411.445312 329.664062 L 512 431 L 512 0 Z M 0 0 " style=" stroke:none;fill-rule:nonzero;fill:rgb(32.941176%,72.941176%,98.823529%);fill-opacity:1;" />
<path d="M 256 0 L 256 329.664062 L 411.445312 329.664062 L 512 431 L 512 0 Z M 256 0 " style=" stroke:none;fill-rule:nonzero;fill:rgb(29.019608%,63.921569%,87.058824%);fill-opacity:1;" />
<path d="M 322.113281 147.382812 L 279.890625 135.992188 L 256 99.398438 L 232.109375 135.992188 L 189.886719 147.382812 L 217.34375 181.390625 L 215.140625 225.027344 L 256 209.449219 L 296.859375 225.027344 L 294.65625 181.390625 Z M 322.113281 147.382812 " style=" stroke:none;fill-rule:nonzero;fill:rgb(100%,96.078431%,85.882353%);fill-opacity:1;" />
<path d="M 179.660156 147.382812 L 137.4375 135.992188 L 113.546875 99.398438 L 89.65625 135.992188 L 47.433594 147.382812 L 74.890625 181.390625 L 72.6875 225.027344 L 113.546875 209.449219 L 154.40625 225.027344 L 152.203125 181.390625 Z M 179.660156 147.382812 " style=" stroke:none;fill-rule:nonzero;fill:rgb(100%,96.078431%,85.882353%);fill-opacity:1;" />
<path d="M 322.113281 147.382812 L 279.890625 135.992188 L 256 99.398438 L 256 209.449219 L 296.859375 225.027344 L 294.65625 181.390625 Z M 322.113281 147.382812 " style=" stroke:none;fill-rule:nonzero;fill:rgb(99.607843%,88.235294%,58.431373%);fill-opacity:1;" />
<path d="M 464.566406 147.382812 L 422.34375 135.992188 L 398.453125 99.398438 L 374.5625 135.992188 L 332.339844 147.382812 L 359.796875 181.390625 L 357.59375 225.027344 L 398.453125 209.449219 L 439.3125 225.027344 L 437.109375 181.390625 Z M 464.566406 147.382812 " style=" stroke:none;fill-rule:nonzero;fill:rgb(99.607843%,88.235294%,58.431373%);fill-opacity:1;" />
</g>
</svg>